<svg width="25" height="25" viewBox="0 0 25 25" fill="none" xmlns="http://www.w3.org/2000/svg">
<path d="M20.46 9.4599C19.79 8.7199 18.78 8.2899 17.38 8.1399V7.3799C17.38 6.0099 16.8 4.6899 15.78 3.7699C14.75 2.8299 13.41 2.3899 12.02 2.5199C9.62999 2.7499 7.61999 5.0599 7.61999 7.5599V8.1399C6.21999 8.2899 5.20999 8.7199 4.53999 9.4599C3.56999 10.5399 3.59999 11.9799 3.70999 12.9799L4.40999 18.5499C4.61999 20.4999 5.40999 22.4999 9.70999 22.4999H15.29C19.59 22.4999 20.38 20.4999 20.59 18.5599L21.29 12.9699C21.4 11.9799 21.42 10.5399 20.46 9.4599ZM12.16 3.9099C13.16 3.8199 14.11 4.1299 14.85 4.7999C15.58 5.4599 15.99 6.3999 15.99 7.3799V8.0799H9.00999V7.5599C9.00999 5.7799 10.48 4.0699 12.16 3.9099ZM8.91999 13.6499H8.90999C8.35999 13.6499 7.90999 13.1999 7.90999 12.6499C7.90999 12.0999 8.35999 11.6499 8.90999 11.6499C9.46999 11.6499 9.91999 12.0999 9.91999 12.6499C9.91999 13.1999 9.46999 13.6499 8.91999 13.6499ZM15.92 13.6499H15.91C15.36 13.6499 14.91 13.1999 14.91 12.6499C14.91 12.0999 15.36 11.6499 15.91 11.6499C16.47 11.6499 16.92 12.0999 16.92 12.6499C16.92 13.1999 16.47 13.6499 15.92 13.6499Z" fill="#FFE5A5"/>
</svg>
