<svg xmlns:xlink="http://www.w3.org/1999/xlink" class="RCP__sc-1qnswg8-4 kwmgab" xmlns="http://www.w3.org/2000/svg" width="32" height="30.11764705882353" viewBox="0 0 34 32"><path d="M27.563 20.896c-2.789 2.067-6.526 3.206-10.522 3.206-8.11 0-14.707-4.787-14.707-10.671 0-2.836 1.491-5.54 4.2-7.613 2.809-2.15 6.54-3.336 10.509-3.339h.013c3.96 0 7.686 1.184 10.493 3.334 2.709 2.075 4.201 4.781 4.201 7.619 0 2.812-1.486 5.463-4.186 7.464zm0 5.12c-2.789 2.067-6.526 3.206-10.522 3.206-7.284 0-13.348-3.861-14.507-8.911A14.232 14.232 0 0 0 5.13 22.77c3.187 2.364 7.418 3.666 11.911 3.666 4.494 0 8.724-1.301 11.913-3.666a14.274 14.274 0 0 0 2.599-2.464c-.486 2.148-1.86 4.131-3.989 5.709zm6.491-13.362c-.243-3.288-2.027-6.35-5.087-8.693C25.756 1.501 21.526.146 17.055.146h-.014C7.644.152 0 6.112 0 13.432v5.12c0 3.57 1.822 6.887 5.129 9.339 3.188 2.364 7.419 3.666 11.912 3.666 4.494 0 8.724-1.301 11.913-3.666 3.307-2.452 5.129-5.769 5.129-9.339v-5.639c0-.088-.01-.175-.028-.258z" fill="#FF6F61"></path><path d="M20.26 17.823a7.24 7.24 0 0 1-1.512.159c-2.105 0-3.958-.909-5.028-2.28h4.814a1.167 1.167 0 0 0 0-2.334h-5.763a4.358 4.358 0 0 1-.019-.381c0-.237.021-.469.057-.698h5.724a1.167 1.167 0 0 0 .001-2.334h-4.622c1.092-1.276 2.853-2.108 4.837-2.109h.004c.506 0 1.01.055 1.495.165a1.167 1.167 0 0 0 .512-2.277 9.172 9.172 0 0 0-2.007-.222h-.006c-3.389.003-6.31 1.83-7.609 4.443h-.773a1.166 1.166 0 1 0-.001 2.334h.092a6.71 6.71 0 0 0-.027 1.079h-.065a1.166 1.166 0 1 0-.001 2.334h.636a7.255 7.255 0 0 0 1.929 2.545c1.559 1.334 3.627 2.069 5.819 2.069.678 0 1.351-.071 2.002-.211a1.168 1.168 0 0 0-.491-2.283z" fill="#FF6F61"></path></svg>