<svg xmlns:xlink="http://www.w3.org/1999/xlink" class="RCP__sc-1qnswg8-2 jTcJOx" xmlns="http://www.w3.org/2000/svg" width="32" height="37.925925925925924" viewBox="0 0 27 32"><path d="M13.207 22.759a2.151 2.151 0 1 0 0 4.302 2.151 2.151 0 0 0 0-4.302z" fill="#FF6F61"></path><path d="M20.806 27.979a4.326 4.326 0 0 1-3.451 1.745H9.06a4.329 4.329 0 0 1-3.451-1.745c-1.57-2.108-2.651-4.777-3.127-7.613h21.451c-.475 2.837-1.556 5.505-3.127 7.613zM5.513 6.533c2.062-2.701 4.795-4.188 7.694-4.188s5.632 1.487 7.695 4.188c2.131 2.792 3.305 6.549 3.305 10.577 0 .35-.013.7-.031 1.049h-3.41v-4.683a1.103 1.103 0 1 0-2.206 0v4.683h-4.249v-4.683a1.103 1.103 0 1 0-2.206 0v4.683H7.857v-4.683a1.103 1.103 0 0 0-2.207 0v4.683H2.24a19.305 19.305 0 0 1-.032-1.049c0-4.029 1.174-7.785 3.306-10.577zm17.142-1.34C20.166 1.933 16.81.137 13.206.137S6.247 1.933 3.758 5.193C1.334 8.368-.001 12.6-.001 17.11c0 4.47 1.399 8.912 3.838 12.187a6.545 6.545 0 0 0 5.221 2.634h8.295a6.547 6.547 0 0 0 5.221-2.633c2.439-3.275 3.838-7.717 3.838-12.187 0-4.51-1.335-8.742-3.759-11.917z" fill="#FF6F61"></path></svg>